<svg width="52" height="67" fill="none" xmlns="http://www.w3.org/2000/svg"><path d="M51.87 59.636A7.364 7.364 0 0 1 44.506 67H8.986a8.216 8.216 0 0 1-5.654-14.176l14.632-13.88c3.564-3.494 6.325-6.295 8.284-8.403 1.99-2.108 3.387-3.9 4.19-5.377.803-1.475 1.204-3.011 1.204-4.608 0-1.957-.674-3.373-2.023-4.247-1.348-.873-2.938-1.31-4.768-1.31-2.215 0-4.463.603-6.742 1.807-.538.281-1.093.595-1.665.941C12.9 19.892 8.27 19.653 5.48 16.59c-2.99-3.283-2.66-8.424 1.018-10.914l.244-.164c2.376-1.627 5.185-2.952 8.428-3.976C18.414.512 22.363 0 27.019 0c4.784 0 8.925.783 12.425 2.35 3.532 1.565 6.261 3.719 8.188 6.46 1.926 2.71 2.89 5.798 2.89 9.261 0 3.826-.755 7.244-2.264 10.256-1.477 2.982-3.709 5.979-6.695 8.99-2.986 2.982-6.71 6.37-11.173 10.166l-5.044 4.245a.308.308 0 0 0 .198.544h18.962a7.364 7.364 0 0 1 7.364 7.364Z" fill="#000"/></svg>