<svg width="46" height="66" fill="none" xmlns="http://www.w3.org/2000/svg"><path d="M24.2 23.514c4.207 0 7.942.757 11.206 2.271 3.296 1.515 5.886 3.741 7.769 6.68C45.058 35.406 46 39.028 46 43.333c0 4.69-1.036 8.744-3.108 12.158-2.04 3.384-5.1 5.982-9.18 7.793C29.661 65.094 24.608 66 18.55 66c-3.61 0-7.016-.297-10.217-.89-1.981-.353-3.81-.827-5.484-1.423C1.063 63.05 0 61.283 0 59.386v-.72c0-3.714 3.984-6.268 7.57-5.305.328.088.661.174 1 .258 3.358.802 6.512 1.203 9.463 1.203 2.887 0 5.32-.356 7.298-1.069 1.977-.742 3.468-1.87 4.473-3.385 1.035-1.543 1.553-3.503 1.553-5.878 0-3.177-1.13-5.611-3.39-7.304-2.26-1.692-5.728-2.538-10.405-2.538-1.79 0-3.657.163-5.603.49a80.394 80.394 0 0 0-2.974.56c-1.184.248-2.423.118-3.502-.43l-1.135-.576a5 5 0 0 1-2.722-4.848l1.97-25.233A5 5 0 0 1 8.58 0h27.712a5 5 0 0 1 5 5v1.668a5 5 0 0 1-5 5h-15.05a5 5 0 0 0-4.976 4.505l-.472 4.754c-.175 1.756 1.393 3.187 3.133 2.899 1.256-.208 3.014-.312 5.274-.312Z" fill="#000"/></svg>