<svg width="46" height="68" fill="none" xmlns="http://www.w3.org/2000/svg"><path d="M0 38.922c0-3.81.267-7.576.802-11.296.565-3.75 1.53-7.273 2.898-10.57a27.528 27.528 0 0 1 5.75-8.8c2.466-2.57 5.601-4.582 9.405-6.033C22.658.74 27.265 0 32.672 0c1.278 0 2.764.06 4.458.181l.27.015c2.354.138 4.009 2.169 4.009 4.527v3.275c0 1.99-1.855 3.471-3.833 3.252a29.794 29.794 0 0 0-4.012-.272c-5.408 0-9.598.877-12.57 2.631-2.942 1.754-5.022 4.189-6.24 7.304-1.153 2.991-1.844 6.466-2.075 10.424a.352.352 0 0 0 .352.372c.128 0 .246-.07.31-.18a15.93 15.93 0 0 1 3.018-3.767c1.277-1.149 2.822-2.056 4.635-2.721 1.813-.696 3.938-1.044 6.374-1.044 3.804 0 7.102.832 9.896 2.495 2.793 1.633 4.947 4.007 6.463 7.122C45.242 36.73 46 40.524 46 45.001c0 4.778-.906 8.89-2.719 12.339-1.813 3.447-4.383 6.093-7.711 7.938C32.27 67.093 28.349 68 23.802 68c-3.328 0-6.433-.575-9.316-1.724-2.882-1.18-5.408-2.964-7.577-5.353-2.17-2.389-3.863-5.398-5.081-9.027C.609 48.236 0 43.912 0 38.922Zm23.535 17.873c2.704 0 4.903-.937 6.597-2.812 1.694-1.875 2.54-4.809 2.54-8.8 0-3.237-.742-5.777-2.228-7.622-1.456-1.875-3.67-2.813-6.642-2.813-2.02 0-3.803.47-5.349 1.407-1.515.907-2.689 2.071-3.52 3.493-.833 1.39-1.249 2.827-1.249 4.31 0 1.542.208 3.069.624 4.581a14.033 14.033 0 0 0 1.872 4.128 10.083 10.083 0 0 0 3.076 2.994c1.248.756 2.674 1.134 4.279 1.134Z" fill="#000"/></svg>