<svg width="75" height="79" fill="none" xmlns="http://www.w3.org/2000/svg"><g clip-path="url('#clip0_323_4149')" fill="#000"><path d="m57.88 23.582-.69 7.162c1.945.206 3.678.418 5.423.571 1.238.112 2.24.672 2.829 1.704.772 1.355 1.403 2.794 2.004 4.232.43 1.025.73 2.11 1.067 3.17.642 2.005-.318 4.056-2.222 4.775-1.94.73-4.038-.195-4.851-2.18a83.042 83.042 0 0 1-1.474-3.873c-.159-.448-.395-.602-.86-.62-1.933-.082-3.86-.211-5.835-.323-.083 1.043-.136 1.962-.242 2.876-.047.389-.153.79-.324 1.138-1.898 3.86-3.808 7.72-5.735 11.57-.778 1.55-2.364 2.345-3.95 2.068-1.744-.306-3.011-1.538-3.152-3.318-.06-.754.147-1.591.442-2.305 1.332-3.218 2.764-6.389 4.09-9.607.354-.86.59-1.833.625-2.758.118-3.19.1-6.384.183-9.572.03-1.05.206-2.099.342-3.378-.832.955-1.521 1.745-2.217 2.535-.825.937-1.615 1.915-2.493 2.8-.972.978-2.122 1.603-3.584 1.308-2.546-.519-3.895-3.53-2.316-5.582 2.346-3.053 4.904-5.947 7.374-8.906.165-.2.383-.389.613-.507 2.563-1.285 5.104-2.617 7.715-3.807 2.475-1.132 4.874-.825 7.079.801a93.656 93.656 0 0 1 3.224 2.482c.377.306.678.377 1.143.188a282.94 282.94 0 0 1 6.826-2.681c2.334-.884 4.691.471 5.133 2.911.29 1.586-.571 3.342-2.14 3.99a363.43 363.43 0 0 1-10.013 3.926c-1.356.507-2.617.094-3.725-.807a4.227 4.227 0 0 1-.271.029l-.018-.012ZM47.394 33.938c.442 3.749-.4 7.215-2.086 10.556-1.12 2.228-2.04 4.557-2.959 6.879-.183.466-.118 1.196.141 1.609.218.342.944.607 1.356.507.454-.106.955-.584 1.179-1.026a724.823 724.823 0 0 0 5.428-10.922c.207-.418.301-.907.354-1.373.118-1.002.112-2.021.271-3.012.165-1.02.49-1.255 1.527-1.214 2.522.1 5.045.248 7.574.342.86.03 1.361.4 1.644 1.22.536 1.527 1.132 3.035 1.727 4.544.36.902 1.102 1.262 1.898.967.79-.289 1.138-1.055.849-1.95-.43-1.315-.837-2.636-1.332-3.926-.342-.89-.731-1.78-1.25-2.57-.289-.436-.866-.873-1.362-.937-1.921-.26-3.86-.39-5.8-.525-1.231-.082-1.602-.418-1.579-1.674.03-1.355-.023-2.729.165-4.06.3-2.07.72-4.127 1.208-6.16.236-.985 1.126-1.179 1.94-.56.507.389.943.896 1.49 1.19.425.23 1.062.425 1.468.272a277.22 277.22 0 0 0 9.566-3.755c.401-.165.802-.743.885-1.185.218-1.167-.914-1.903-2.128-1.432-2.476.96-4.957 1.922-7.409 2.93-.82.335-1.438.218-2.104-.354-1.108-.955-2.287-1.821-3.436-2.723-1.663-1.309-3.466-1.556-5.376-.625-2.363 1.15-4.71 2.334-7.061 3.519-.206.106-.383.289-.536.471-2.17 2.588-4.333 5.187-6.496 7.78a4.616 4.616 0 0 0-.406.596c-.33.572-.16 1.084.236 1.532.418.478.978.613 1.503.254a7.17 7.17 0 0 0 1.361-1.209c1.656-1.874 3.26-3.795 4.933-5.652a7.458 7.458 0 0 1 1.84-1.491c.359-.207 1.054-.236 1.36-.018.307.218.502.89.42 1.297-.761 3.931-1.227 7.88-1.026 11.888h.023Z"/><path d="M23.512 44.919c-.896-.914-1.798-1.745-2.588-2.664-.3-.354-.59-.99-.466-1.362.124-.377.725-.778 1.167-.854 4.32-.743 8.653-1.427 12.98-2.116 1.373-.218 1.873.312 1.679 1.697l-1.821 12.867c-.083.583-.171 1.173-.843 1.42-.678.248-1.12-.135-1.527-.577-.577-.62-1.149-1.256-1.615-1.763-1.302 1.226-2.463 2.352-3.666 3.443-4.662 4.232-10.202 6.666-16.332 7.786-2.924.53-5.894.819-8.841 1.226-.678.094-1.25-.06-1.48-.755-.241-.737.153-1.185.79-1.532 3.684-2.01 7.415-3.944 11.016-6.095 3.878-2.316 7.356-5.157 10.15-8.764.489-.625.925-1.291 1.39-1.945l.007-.012ZM7.722 60.85c.27.023.33.035.377.029.577-.1 1.149-.2 1.726-.312 5.075-.99 9.855-2.73 13.881-6.06 1.933-1.603 3.625-3.5 5.399-5.292.737-.743 1.29-.82 2.034-.083.389.39.707.843 1.055 1.267l.253-.182c.466-3.242.925-6.484 1.403-9.838-3.336.537-6.543 1.055-9.749 1.574-.041.083-.083.16-.124.242.49.436 1.002.854 1.474 1.308.86.831.949 1.185.27 2.134-1.119 1.58-2.215 3.2-3.5 4.639-3.448 3.848-7.71 6.66-12.148 9.224-.73.418-1.462.837-2.352 1.344v.006ZM71.224 62.831V77.03c0 1.308-.336 1.638-1.656 1.638H58.24c-1.297 0-1.61-.306-1.61-1.597V48.508c0-1.232.33-1.562 1.568-1.562H69.61c1.267 0 1.615.354 1.615 1.604V62.83Zm-2.381 13.527V49.292h-9.855v27.066h9.855ZM52.363 67.918V77.1c0 1.196-.371 1.567-1.574 1.567h-11.5c-1.166 0-1.543-.36-1.543-1.52a9608.18 9608.18 0 0 1 0-18.443c0-1.108.395-1.491 1.49-1.491h11.5c1.256 0 1.627.36 1.627 1.603v9.1Zm-2.37-8.352h-9.86v16.75h9.86v-16.75ZM33.496 70.7V77c0 1.326-.336 1.674-1.633 1.674H20.458c-1.208 0-1.585-.365-1.585-1.556v-12.76c0-1.22.36-1.592 1.55-1.592H31.91c1.243 0 1.585.36 1.59 1.639v6.3l-.005-.005Zm-12.254 5.628h9.855V65.106h-9.855v11.222ZM7.338 78.674H1.515C.37 78.674 0 78.291 0 77.13v-7.256c0-1.096.395-1.485 1.491-1.485h11.647c1.067 0 1.462.371 1.467 1.427.018 2.47.012 4.945 0 7.414 0 1.073-.383 1.438-1.45 1.444-1.939.012-3.884 0-5.823 0h.006Zm-4.94-7.963v5.623h9.85v-5.623h-9.85ZM56.088 0a5.62 5.62 0 0 1 5.658 5.593c.018 3.089-2.516 5.635-5.617 5.641-3.112.006-5.646-2.499-5.658-5.6-.006-3.1 2.51-5.622 5.617-5.634Zm3.33 5.652a3.32 3.32 0 0 0-3.312-3.365 3.317 3.317 0 0 0-3.313 3.283c-.023 1.845 1.48 3.371 3.313 3.371 1.803 0 3.294-1.485 3.306-3.294l.006.005Z"/></g><defs><clipPath id="clip0_323_4149"><path fill="#fff" d="M0 0h74.095v78.674H0z"/></clipPath></defs></svg>