<svg width="101" height="141" fill="none" xmlns="http://www.w3.org/2000/svg"><g clip-path="url('#clip0_459_108')" fill="#3D71BD"><path d="M100.58 70.328v67.207c0 2.531-.628 3.151-3.18 3.151-25.05 0-50.095-.008-75.143.023-1.328 0-2.308-.371-3.245-1.32a2196.772 2196.772 0 0 0-16.808-16.846c-.911-.904-1.29-1.845-1.29-3.127C.941 80.661.937 41.906.937 3.15.937.613 1.553 0 4.114 0h93.255c2.617 0 3.211.601 3.211 3.26v67.068Zm-58.668 36.811c.526.355.802.48.991.681 4.474 4.739 4.455 11.198-.11 15.869-3.653 3.737-8.267 5.307-13.358 5.617-1.906.117-3.824.019-5.787.019v6.751h72.325V4.622H5.551v113.311h4.618c-.84-5.231 1.278-9.172 5.382-11.974 6.8-4.645 14.126-5.004 21.667-1.971.893.36 1.43.367 2.04-.389.91-1.127 1.905-2.186 2.673-3.056 1.4 1.237 2.477 2.194 3.623 3.203-1.18 1.093-2.28 2.118-3.65 3.389l.008.004Zm-18.34 16.989c2.58.738 5.091.859 7.626.393 3.611-.662 6.91-1.951 9.171-5.041 2.16-2.946 1.471-6.978-1.732-9.134-.261.367-.514.843-.874 1.21a1019.299 1019.299 0 0 1-7.798 7.818c-1.105 1.093-2.285 1.29-3.264.374-1.612-1.497-3.102-3.124-4.531-4.584 1.032-1.115 2.015-2.174 3.226-3.479.911 1.063 1.766 2.05 2.47 2.871 2.322-2.323 4.504-4.509 6.697-6.706-4.345-1.619-8.793-1.604-13.225.106-2.19.843-4.138 2.069-5.503 4.039-.995 1.433-1.536 2.988-1.158 4.8.19.896.522 1.278 1.487 1.233 1.645-.076 3.298-.038 4.95-.016 1.612.023 2.428.84 2.463 2.44.026 1.221.003 2.443.003 3.684l-.007-.008ZM19 122.608H9.322c3.188 3.203 6.467 6.493 9.678 9.72v-9.72Z"/><path d="M30.433 38.524v5.983c1.037-1.236 1.839-2.193 2.656-3.165 1.263 1.312 2.265 2.356 3.263 3.396-2.242 2.292-4.477 4.656-6.811 6.918-.885.854-2.058.805-2.946-.061-2.292-2.235-4.516-4.546-6.82-6.883 1.07-1.006 2.126-1.994 3.48-3.264.673.87 1.441 1.857 2.209 2.844l.314-.246v-5.454c-1.263-.28-2.644-.397-3.87-.892-2.212-.89-4.538-1.714-6.452-3.079-7.401-5.265-7.33-14.376.17-19.49 6.755-4.602 14.062-4.935 21.55-1.936.965.386 1.518.33 2.15-.43.903-1.082 1.875-2.107 2.828-3.162l3.533 3.498c-1.21 1.04-2.383 2.046-3.608 3.094 2.533 2.447 4.001 5.128 4.133 8.407.144 3.548-1.38 6.4-3.876 8.775-2.935 2.79-6.517 4.243-10.458 4.898-.461.075-.919.158-1.44.245l-.005.004ZM34.688 17.1c-5.325-1.854-10.51-1.702-15.427 1.096-6.286 3.578-6.278 9.928-.015 13.521 4.005 2.296 8.328 2.822 12.837 1.85 3.161-.68 6.013-1.952 8.067-4.565 2.379-3.022 1.883-6.808-1.226-9.327-.359.344-.737.692-1.096 1.055-2.603 2.602-5.209 5.205-7.8 7.822-.937.945-2.11 1.448-3.134.54-1.702-1.512-3.177-3.278-4.72-4.909l3.305-3.407c.832 1.138 1.63 2.235 2.345 3.218 2.44-2.45 4.595-4.618 6.864-6.894ZM42.438 55.2l3.18 3.18-3.471 2.893c1.127 1.627 2.16 2.814 2.859 4.172 2.33 4.52 1.293 9.572-2.617 13.271-2.98 2.818-6.585 4.312-10.583 4.951-.457.072-.907.166-1.391.257v5.749c1.032-.983 1.921-1.83 2.878-2.746.998 1.104 1.967 2.171 2.95 3.264-2.186 2.231-4.47 4.663-6.872 6.967-.78.748-1.925.643-2.72-.133-2.322-2.269-4.576-4.61-6.811-6.876l3.241-3.38 2.319 2.919.34-.227v-5.499c-1.274-.28-2.61-.518-3.914-.866-2.814-.753-5.363-2.035-7.56-3.975-5.776-5.106-5.806-12.855.192-17.674 6.883-5.53 14.599-5.99 22.643-2.893.999.386 1.578.386 2.273-.443.821-.968 1.782-1.819 2.69-2.715.064-.064.162-.087.374-.197ZM38.72 64.88c-.321.447-.552.878-.881 1.21a1263.313 1263.313 0 0 1-7.795 7.822c-1.112 1.108-2.326 1.38-3.26.518-1.645-1.52-3.147-3.196-4.482-4.569 1.002-1.127 1.955-2.205 3.185-3.585.885 1.051 1.724 2.05 2.379 2.833 2.303-2.304 4.489-4.49 6.679-6.676-5.375-1.845-10.726-1.652-15.741 1.438-5.719 3.524-5.666 9.47.064 12.995 4.04 2.48 8.445 3.067 13.056 2.125 3.162-.643 6.032-1.89 8.124-4.474 2.488-3.07 2.05-6.838-1.332-9.633l.004-.004ZM91.465 22.802v4.334H55.373v-4.334h36.092ZM55.41 31.792h35.995v4.41H55.41v-4.41ZM55.376 68.142h36.036v4.376H55.376v-4.376ZM91.45 77.249v4.365H55.406v-4.365H91.45ZM55.357 117.891v-4.357H91.45v4.357H55.357ZM91.442 127.01H55.395v-4.387h36.047v4.387ZM55.353 18.045V13.69H73.33v4.354H55.353ZM55.361 63.433v-4.365h17.927v4.365H55.361ZM73.41 105v4.308H55.436V105H73.41Z"/></g><defs><clipPath id="clip0_459_108"><path fill="#fff" transform="translate(.914)" d="M0 0h99.665v140.705H0z"/></clipPath></defs></svg>