<svg width="134" height="134" fill="none" xmlns="http://www.w3.org/2000/svg"><g clip-path="url('#clip0_459_99')" fill="#3D71BD"><path d="M42.149 133.56c-.827-.233-1.657-.445-2.476-.701-2.547-.786-4.67-2.249-6.543-4.124-9.431-9.442-18.877-18.874-28.301-28.32-6.403-6.42-6.446-15.546-.104-21.989 3.075-3.125 6.194-6.208 9.201-9.219l16.05 16.043c-1.567 1.534-3.205 3.136-4.836 4.746-1.175 1.16-2.364 2.31-3.496 3.514-.913.97-.992 2.123-.097 3.04 2.36 2.42 4.793 4.774 7.315 7.275.201-.575.385-1.049.535-1.531 2.03-6.427 6.392-10.117 13.025-11.231 4.401-.74 8.785-1.581 13.56-2.447-.385-.604-.561-1.186-.953-1.44-4.904-3.224-8.098-7.636-9.52-13.345-.09-.363-.518-.772-.885-.916-4.139-1.613-6.115-4.434-6.119-8.85 0-5.087-.028-10.175.011-15.259.097-13.092 10.47-24.989 23.423-26.89 15.133-2.22 28.592 6.924 31.948 21.792.435 1.933.618 3.956.632 5.94.069 8.432.036 16.868.025 25.304-.003 4.182-2.77 7.071-6.938 6.895-2.536-.108-4.552.266-6.154 2.494-.83 1.15-2.282 1.839-3.4 2.798-.38.327-.603.834-1.037 1.463 4.735.866 9.068 1.728 13.426 2.443 6.568 1.074 10.98 4.62 13.075 10.991 1.423 4.322 2.885 8.63 4.322 12.949.133.402.22.819.352 1.333H62.068c1.347 1.092 2.436 1.972 3.64 2.946-2.702 2.486-4.987 4.595-7.276 6.697-.672.618-1.39 1.189-2.02 1.847-2.795 2.928-6.068 4.998-10.092 5.763H42.15v-.011Zm47.775-76.598c0-3.575.402-7.175-.08-10.646-1.282-9.259-6.506-15.737-15.255-18.942-8.817-3.23-16.955-1.49-23.993 4.71-7.581 6.68-8.418 15.519-7.556 24.806 2.066-.003 2.037-1.552 1.99-3.111 4.24.19 8.188-.374 11.95-2.066 3.762-1.692 6.705-4.427 9.583-7.466 5.651 6.686 12.694 10.107 21.486 9.532v2.457c.69.27 1.322.514 1.875.73v-.004Zm-23.383 45.189c-.384-.363-.704-.651-1.006-.952-2.522-2.516-5.051-5.023-7.552-7.564-.56-.567-1.042-.8-1.915-.628-4.506.883-9.036 1.642-13.556 2.472-4.287.786-7.215 3.212-8.695 7.333-.439 1.221-.895 2.447-1.204 3.704-.108.438.057 1.11.352 1.444 1.003 1.139 2.124 2.178 3.198 3.252 1.911 1.911 2.662 1.919 4.67.093 2.818-2.558 5.649-5.105 8.53-7.703 2.497 2.501 4.944 4.905 7.33 7.366.683.704 1.369 1.013 2.371 1.009 13.858-.032 27.716-.021 41.574-.021h1.736c-1.445-3.92-2.598-7.743-4.254-11.329-1.247-2.698-3.737-4.336-6.705-4.922-4.718-.93-9.467-1.707-14.181-2.652-1.042-.208-1.667.015-2.375.744-2.724 2.799-5.505 5.537-8.321 8.354h.003Zm-.014-24.648h1.495c4.128 0 8.256-.018 12.388.018.754.007 1.168-.223 1.491-.909 1.024-2.184 1.735-4.448 1.757-6.877.029-3.607.022-7.214.022-10.825 0-.245-.076-.489-.13-.805-6.553-.611-12.22-3.18-17.052-7.632-4.897 4.567-10.617 7.025-17.124 7.66 0 4.053-.194 7.973.036 11.864.683 11.573 12.155 19.018 23.045 15.062 1.85-.672 3.557-1.613 5.296-3.212h-11.22v-4.344h-.004Zm-23.448 37.794c-4.272 2.666-6.582 2.397-10.232-1.254-4.639-4.638-9.306-9.252-13.89-13.94-.856-.873-1.621-1.97-2.034-3.108-.87-2.407-.137-4.603 1.548-6.536-.29-.316-.542-.607-.808-.876-2.968-2.986-5.94-5.968-8.9-8.943-5.5 4.613-5.881 11.662-.934 16.624 9.478 9.507 18.989 18.982 28.467 28.485 2.515 2.522 5.497 3.722 9.054 3.392 3.147-.291 5.573-1.869 7.47-4.067l-9.737-9.78-.004.003Zm3.568-3.37c3.345 3.349 6.575 6.586 9.866 9.877.755-.701 1.62-1.509 2.318-2.159-3.327-3.36-6.518-6.579-9.777-9.874-.8.715-1.66 1.488-2.407 2.152v.004ZM12.087 77.37c3.258 3.259 6.5 6.496 9.485 9.478.668-.542 1.462-1.185 2.088-1.695l-9.705-9.723-1.865 1.94h-.003ZM60.71 89.712c1.954 1.983 3.963 4.028 5.828 5.917l5.946-5.957c-3.96 1.107-7.959 1.114-11.774.04Zm25.736-12.313c3.6.6 4.211-1.107 3.446-5.282-.82.514-1.894.82-2.285 1.513-.618 1.092-.784 2.443-1.165 3.773l.004-.004Zm-41.477-16.32c-1.336.683-1.893 1.715-2.048 2.976-.23 1.854.474 3.23 1.951 3.945.036-.122.097-.237.097-.352.007-2.117.004-4.233.004-6.572l-.004.004Zm43.148 7.025c2.72-1.304 2.662-5.785 0-6.934v6.934ZM133.435 23.997c-.13.5-.252 1.003-.396 1.498-.783 2.692-3.172 4.538-6.075 4.707-.259.015-.528.04-.784.004-3.682-.532-6.758.7-9.798 2.777-4.868 3.33-9.97 6.32-14.978 9.446-.324.201-.669.363-1.215.654l2.181-12.874c-1.757 0-3.442.008-5.13 0-4.348-.017-7.072-2.741-7.075-7.092-.007-5.39-.007-10.782 0-16.172C90.175 2.716 92.877 0 97.074 0h28.819c4.34 0 6.356 1.584 7.362 5.777.039.166.118.32.176.478v17.739l.004.003Zm-25.898 1.833c-.478 2.863-.92 5.54-1.412 8.5 2.741-1.713 5.357-3.104 7.689-4.868 3.761-2.842 7.782-4.286 12.542-3.675 1.765.226 2.613-.773 2.62-2.602.018-5.386.014-10.775 0-16.16-.004-1.93-.751-2.656-2.695-2.66-9.687-.007-19.373-.007-29.06 0-1.987 0-2.666.68-2.67 2.645-.006 5.342-.003 10.689 0 16.031 0 2.092.705 2.781 2.825 2.785 3.338.004 6.679 0 10.157 0l.004.004Z"/><path d="M12.403 53.19c1.969-1.175 3.754-2.235 5.626-3.349.737 1.222 1.448 2.397 2.235 3.705l-12.64 7.599c-2.522-4.197-5.012-8.34-7.588-12.622 1.21-.74 2.375-1.455 3.704-2.267 1.33 2.202 2.634 4.358 4.017 6.654C17.407 14.688 55.985-.427 84.362 9.252l-1.218 3.938c-18.777-5.055-35.998-2.16-51.422 9.78-10.499 8.127-17.25 20.16-19.323 30.216l.004.004ZM132.263 47.686c-.801 1.329-1.505 2.508-2.238 3.725a6507.023 6507.023 0 0 1-6.162-3.679c6.173 20.818 2.666 39.735-10.409 57.103-1.2-.967-2.267-1.829-3.381-2.731 12.159-16.125 15.428-33.791 9.504-53.445-1.366 2.253-2.566 4.23-3.82 6.302-1.272-.758-2.45-1.458-3.726-2.216 2.53-4.222 5.02-8.376 7.585-12.651l12.651 7.588-.004.004ZM124.621 8.724v4.175H98.853V8.724h25.768ZM115.98 21.525H98.888v-4.2h17.092v4.2ZM124.607 21.537h-4.147v-4.219h4.147v4.218Z"/></g><defs><clipPath id="clip0_459_99"><path fill="#fff" d="M0 0h133.434v133.56H0z"/></clipPath></defs></svg>