<svg width="82" height="82" fill="none" xmlns="http://www.w3.org/2000/svg"><g clip-path="url('#clip0_323_4138')" fill="#000"><path d="M81.757 63.073c-.419.766-1.073 1.013-1.928.972-1.137-.047-2.275-.012-3.512-.012v15.761c0 1.52-.436 1.957-1.94 1.957H61.923c-1.562 0-1.968-.413-1.968-2.004V64.033h-3.66c-1.303-.005-1.792-.471-1.798-1.774-.012-4.096-.036-8.198 0-12.295.041-4.662 3.076-8.169 7.697-8.977.13-.023.254-.064.472-.123-1.32-1.987-1.715-4.067-.949-6.313.483-1.409 1.356-2.523 2.564-3.365 2.517-1.763 5.9-1.539 8.352.53 2.528 2.134 2.864 5.134 1.073 9 1.22.484 2.504.85 3.648 1.474 2.352 1.29 3.666 3.395 4.238 5.982.041.177.1.354.153.53v14.37h.012Zm-5.405-15.337v13.539h2.688v-.737c0-3.46.011-6.92 0-10.373-.012-3.926-2.64-6.555-6.566-6.566-2.9-.012-5.8-.018-8.7.011-.66.006-1.338.077-1.969.254-2.894.807-4.556 3.112-4.58 6.324-.023 3.484-.005 6.973 0 10.456 0 .207.036.413.054.613h2.723V47.76h2.705v31.233h4.067V61.375h2.74v17.606h4.097V47.736h2.741Zm-4.15-10.975a4.045 4.045 0 0 0-4.078-4.037c-2.228 0-4.067 1.833-4.079 4.061-.006 2.246 1.892 4.126 4.138 4.09a4.078 4.078 0 0 0 4.02-4.108v-.006ZM41.2 0c.636.277.949.784 1.126 1.438.418 1.568.89 3.118 1.302 4.686.136.513.342.737.92.719 1.408-.047 2.823-.012 4.232-.018.73 0 1.32.207 1.55.973.23.76-.142 1.267-.755 1.668-1.29.837-2.575 1.686-3.908 2.558.608 1.644 1.191 3.26 1.81 4.868.271.708.348 1.356-.318 1.875-.66.507-1.297.3-1.904-.13-1.256-.896-2.535-1.762-3.766-2.688-.43-.318-.725-.365-1.18-.017-1.166.884-2.386 1.691-3.571 2.552-.654.471-1.309.878-2.098.318-.607-.43-.672-1.055-.254-2.175.566-1.515 1.132-3.03 1.715-4.597-1.267-.825-2.505-1.645-3.754-2.446-.643-.413-1.161-.867-.92-1.739.207-.725.678-1.002 1.763-1.002 1.279 0 2.558-.035 3.83.012.661.023.985-.148 1.156-.837.36-1.497.778-2.983 1.267-4.444.183-.578.631-1.055.955-1.574h.802Zm2.175 13.828c-.242-.773-.59-1.533-.696-2.329-.135-1.013.926-1.273 1.58-1.91-.319-.017-.495-.029-.678-.035-1.615-.017-1.839-.188-2.287-1.733-.112-.377-.247-.742-.4-1.208-.348.914-.449 1.874-.98 2.381-.524.501-1.484.537-2.239.773.047.035.165.13.289.212 1.273.866 1.367 1.149.843 2.575-.154.419-.307.837-.454 1.256l.118.224c1.62-1.951 3.248-1.85 4.904-.207Z"/><path d="M46.316 32.718h1.326c1.35 0 1.403-.047 1.403-1.444v-8.54c0-1.993.306-2.293 2.328-2.293 1.438 0 2.876-.018 4.309.006.984.017 1.52.495 1.526 1.455.012 4.256.089 8.517-.041 12.767-.112 3.59-2.818 6.083-6.419 6.2-.53.018-1.06 0-1.644 0v28.605c.772 0 1.532-.006 2.293 0 1.237.017 1.756.518 1.762 1.744.012 2.93.012 5.853 0 8.782 0 1.244-.513 1.745-1.75 1.745H30.336c-1.197 0-1.721-.5-1.727-1.692-.012-2.952-.012-5.905 0-8.858 0-1.19.524-1.698 1.703-1.721.72-.018 1.439-.012 2.152-.018.047 0 .1-.03.2-.065V41.005c-1.202-.153-2.41-.17-3.542-.477-2.582-.696-4.45-2.983-4.515-5.647-.1-4.308-.065-8.617-.06-12.925 0-1.014.526-1.503 1.551-1.515 1.62-.018 3.248-.012 4.869 0 1.237.006 1.738.507 1.744 1.756.012 2.87 0 5.747 0 8.617v.56c.018 1.28.083 1.344 1.35 1.344h1.285c-2.11-3.837-1.733-7.232 1.898-9.808 2.363-1.674 5.64-1.39 7.756.313 1.433 1.15 2.317 2.599 2.588 4.426.271 1.816-.206 3.454-1.28 5.07h.007Zm-19.003-9.53c0 3.978-.07 7.886.03 11.787.047 1.745 1.691 3.077 3.542 3.172.825.04 1.65.011 2.476.017 1.685 0 2.08.39 2.08 2.051v29.212h4.102V51.815h2.718v17.617h4.06V40.357c0-.242-.011-.478 0-.72.071-.954.578-1.443 1.539-1.467.796-.018 1.597 0 2.393 0 2.753 0 4.232-1.48 4.238-4.238.006-3.3 0-6.595 0-9.896 0-.26-.024-.519-.035-.807h-2.688v.92c-.012 2.58.012 5.162-.041 7.738-.048 2.41-1.244 3.554-3.637 3.56-4.816.006-9.631.012-14.447-.012-.571 0-1.184-.07-1.715-.27-1.503-.567-1.862-1.893-1.892-3.302-.065-2.605-.035-5.216-.047-7.821v-.849h-2.682l.006-.006ZM50.39 72.26H31.386v6.714H50.39v-6.713Zm-9.537-47.706a4.069 4.069 0 0 0-4.05 4.073c0 2.216 1.852 4.072 4.068 4.078 2.24.012 4.126-1.904 4.084-4.137a4.061 4.061 0 0 0-4.108-4.014h.006Z"/><path d="M8.122 40.858c-1.998-4.18-1.509-7.238 1.497-9.549 2.464-1.892 6.006-1.72 8.529.425 1.94 1.65 3.454 5.263.984 9.088.148.06.277.13.419.16 4.703.837 7.692 4.355 7.71 9.124.017 4.014.005 8.033 0 12.047 0 1.415-.46 1.869-1.857 1.875h-3.596v15.607c0 1.745-.365 2.11-2.098 2.11H7.338c-1.444 0-1.892-.454-1.892-1.921V64.033h-3.63c-1.35 0-1.804-.465-1.804-1.839 0-4.043-.006-8.086 0-12.13.012-4.703 3.024-8.263 7.662-9.077.153-.029.3-.088.454-.13h-.006Zm13.68 6.884v13.521h2.7c.018-.177.035-.306.035-.436 0-3.59.012-7.185-.006-10.774 0-.578-.064-1.173-.212-1.733-.784-2.935-3.106-4.692-6.224-4.715-2.9-.018-5.8-.006-8.7 0-4.073.005-6.666 2.616-6.672 6.701v10.975h2.723V47.766h2.741v31.22h4.126V61.37h2.711v17.624h4.067V47.748h2.711v-.006Zm-8.186-15.018a4.06 4.06 0 0 0-4.05 4.067c0 2.24 1.81 4.067 4.05 4.085 2.245.017 4.137-1.88 4.108-4.12a4.094 4.094 0 0 0-4.103-4.032h-.005ZM29.117 5.546c-.348.867-.66 1.645-1.014 2.523l-6.802-2.717c.348-.867.666-1.668 1.014-2.529 2.275.914 4.485 1.798 6.802 2.723ZM29.123 14.889l-6.808 2.723c-.342-.855-.666-1.65-1.014-2.523 2.275-.914 4.486-1.798 6.802-2.723.336.837.66 1.633 1.02 2.523ZM59.2 5.305c-1.857.925-3.625 1.81-5.446 2.723-.413-.825-.802-1.592-1.22-2.429 1.81-.907 3.578-1.791 5.44-2.729.395.79.784 1.556 1.226 2.435ZM59.194 15.136c-.43.86-.807 1.61-1.22 2.428-1.833-.92-3.619-1.81-5.44-2.723.424-.837.807-1.609 1.22-2.428 1.821.908 3.59 1.792 5.44 2.717v.006Z"/></g><defs><clipPath id="clip0_323_4138"><path fill="#fff" d="M0 0h81.757v81.751H0z"/></clipPath></defs></svg>