<svg width="79" height="79" fill="none" xmlns="http://www.w3.org/2000/svg"><g clip-path="url('#clip0_323_4158')" fill="#000"><path d="M22.873 50.984c2.373 0 4.588.053 6.803-.023 1.135-.041 2.122-1.07 2.163-2.206.07-1.77.017-3.547.017-5.4h-1.063c-2.386-.017-4.001-1.623-4.013-4-.012-3.187 0-6.375 0-9.716-.317.218-.546.37-.77.53C16 37.143 2.121 31.208.223 19.127-1.416 8.688 7.168-.771 17.685.047 24.03.54 28.655 3.8 31.51 9.505c.27.541.552.706 1.134.7 11.885-.018 23.771-.012 35.657-.012 2.814 0 4.324 1.512 4.324 4.323v24.546c0 2.758-1.527 4.282-4.289 4.282H40.787v.976c-.018 2.63.164 5.276-.088 7.882-.476 4.911-3.89 8.3-8.866 9.146-1.099.188-2.192.383-3.285.606-1.245.253-1.768.888-1.768 2.159v14.881H.035v-.83c0-4.093.112-8.187-.023-12.275-.235-6.97 4.195-12.764 10.71-14.499-2.39-2.347-3.49-5.123-2.878-8.446.387-2.088 1.433-3.806 3.049-5.176 3.302-2.788 8.173-2.765 11.475.076 1.944 1.676 2.996 3.83 3.114 6.4.123 2.558-.811 4.752-2.615 6.734l.006.006Zm17.914-10.181H68.33c1.352 0 1.751-.4 1.751-1.759v-24.54c0-1.358-.393-1.758-1.745-1.758H31.098c-1.398 0-1.774.388-1.774 1.806v22.227c0 .877-.018 1.753 0 2.63.018.894.5 1.358 1.392 1.388.365.012.723 0 1.152 0 0-1.088-.006-2.094 0-3.094.024-2.57 1.962-4.547 4.442-4.553 2.485 0 4.436 1.965 4.465 4.53.012 1.005 0 2.011 0 3.123h.012Zm-24.2 28.603c-1.111-1.117-2.151-2.211-3.244-3.246-.44-.418-.623-.841-.576-1.453.27-3.335.506-6.676.74-10.011.024-.359 0-.724 0-1.082-5.822.088-10.845 5.205-10.922 11.116-.047 3.718-.011 7.441-.011 11.158 0 .2.035.4.052.588h3.778V60.002H8.96v16.464h15.252v-.918c0-3.852-.005-7.705 0-11.558.006-2.382 1.516-4.123 3.866-4.535 1.199-.212 2.403-.43 3.596-.653 4.042-.764 6.534-3.776 6.545-7.899v-9.088c0-1.405.024-2.817-.011-4.223-.03-1.076-.864-1.87-1.886-1.876-1.023-.006-1.845.782-1.916 1.853-.017.235-.006.476-.006.717 0 3.324.006 6.64 0 9.964-.011 3.13-2.185 5.306-5.311 5.317-2.867.012-5.729 0-8.596 0h-.899c.03.495.047.889.07 1.277.242 3.335.489 6.676.712 10.01.017.295 0 .695-.176.883-1.164 1.23-2.374 2.418-3.631 3.682l.017-.012Zm12.56-58.936c-2.725-5.782-9.135-8.911-15.487-7.612C7.538 4.111 2.81 9.676 2.591 15.893c-.206 5.805 2.955 11.017 8.132 13.416 5.135 2.383 11.063 1.436 15.334-2.423.511-.459.752-.918.74-1.635-.04-3.506.024-7.017-.035-10.523-.029-1.905.594-3.364 2.386-4.258Zm-12.56 27.786c-3.514 0-6.376 2.876-6.364 6.394.012 3.482 2.856 6.334 6.328 6.352 3.513.018 6.398-2.847 6.404-6.358.006-3.518-2.855-6.394-6.369-6.394v.006Zm.21 27.533c.336-.582.953-1.165.947-1.74-.018-2.089-.235-4.183-.388-6.271-.1-1.394-.218-2.788-.33-4.182h-.892c-.223 3.2-.388 6.376-.705 9.535-.112 1.146.14 1.946 1.369 2.658Z"/><path d="M61.204 47.179h13.525c2.714 0 4.26 1.535 4.265 4.223v17.052c0 2.688-1.55 4.229-4.26 4.229H47.603c-2.714 0-4.26-1.535-4.265-4.23v-17.05c0-2.695 1.55-4.224 4.26-4.23h13.607v.006Zm-.041 22.957h13.53c1.352 0 1.751-.4 1.751-1.753V51.484c0-1.352-.4-1.752-1.75-1.752H47.631c-1.358 0-1.751.394-1.751 1.752v16.9c0 1.352.4 1.752 1.75 1.752h13.532ZM44.653 22.963h5.023v-2.535h5.076v-2.559h5.106v-2.511h7.62v22.84H44.653v-15.24.005Zm17.82 12.693h2.461V17.904h-2.462v17.752Zm-2.597-15.21h-2.48v15.192h2.48V20.447Zm-7.585 2.54V35.65h2.444V22.987H52.29Zm-5.083 2.547v10.105h2.456V25.534h-2.456ZM31.909 27.992v-2.453h10.088v2.453H31.909ZM42.026 20.457v2.453H31.938v-2.453h10.088ZM44.576 15.358v2.447h-2.45v-2.447h2.45ZM39.453 17.816h-2.438v-2.482h2.438v2.482ZM34.383 15.352v2.453h-2.45v-2.453h2.45ZM21.686 25.51H17.89v2.476h-2.567c0-.617-.024-1.247.006-1.876.03-.53-.1-.818-.664-1.053-1.998-.83-3.02-2.4-3.179-4.611h2.474c.57 1.982 1.251 2.493 3.337 2.493h1.798c0-1.047.094-2.052-.024-3.035-.14-1.17-1.186-1.982-2.397-2.064-3.272-.212-5.176-2.241-5.176-5.535v-4.63h3.796V5.13h2.573c0 .6.041 1.23-.012 1.847-.047.588.124.876.705 1.106 1.922.759 3.173 2.682 3.067 4.611H19.26c-.176-.441-.246-1.017-.57-1.323-.51-.483-1.151-.982-1.815-1.124-.881-.188-1.833-.047-2.802-.047 0 1.012-.071 1.965.017 2.906.112 1.194 1.158 2.088 2.385 2.176 3.39.253 5.218 2.23 5.218 5.653v4.564l-.006.012Z"/><path d="M58.671 60.854c1.281-.964 2.638-1.206 4.125-.553.14.065.417 0 .546-.1.958-.794 1.915-1.594 2.826-2.447.17-.158.241-.558.188-.817-.429-2.176.917-4.206 3.097-4.606 2.044-.376 4.048 1.07 4.412 3.188.352 2.047-1.128 4.088-3.237 4.359-.606.076-1.275-.041-1.857-.235-.482-.16-.758-.106-1.11.223a50.026 50.026 0 0 1-2.474 2.123c-.347.277-.405.536-.311.953.358 1.553-.141 2.847-1.358 3.818-1.204.959-2.573 1.117-3.96.453-1.44-.694-2.197-1.888-2.185-3.5 0-.494-.118-.77-.564-.988-.688-.341-1.34-.747-2.045-1.153-1.052.759-2.186 1.141-3.496.782-1.874-.517-3.102-2.37-2.796-4.252.323-1.988 2.085-3.394 4.071-3.253 1.94.141 3.526 1.794 3.508 3.753 0 .582.135.917.67 1.17.67.312 1.292.718 1.95 1.088v-.006Zm11.445-6.017c-.687-.023-1.28.541-1.304 1.23a1.28 1.28 0 0 0 1.228 1.305 1.279 1.279 0 0 0 1.304-1.23 1.28 1.28 0 0 0-1.228-1.305Zm-17.831 5.088c.687-.024 1.251-.623 1.228-1.306a1.279 1.279 0 0 0-1.305-1.23 1.279 1.279 0 0 0-1.228 1.307 1.279 1.279 0 0 0 1.305 1.229Zm10.147 3.87a1.28 1.28 0 0 0-1.229-1.306 1.279 1.279 0 0 0-1.304 1.23 1.28 1.28 0 0 0 1.228 1.306 1.28 1.28 0 0 0 1.304-1.23Z"/></g><defs><clipPath id="clip0_323_4158"><path fill="#fff" d="M0 0h79v79H0z"/></clipPath></defs></svg>