<svg width="133" height="134" fill="none" xmlns="http://www.w3.org/2000/svg"><g clip-path="url('#clip0_459_127')" fill="#3D71BD"><path d="M10.905 0h111.143c.185.092.359.22.552.264 6.451 1.442 10.422 7.252 10.396 13.63-.112 25.558-.043 51.116-.047 76.674 0 7.908-5.634 13.59-13.477 13.59-12.463.004-24.927 0-37.39 0h-1.587v12.144c2.14 0 4.112-.212 6.019.041 6.825.904 11.962 7.091 11.657 14.08-.12 2.757-.825 3.573-3.568 3.573H38.39c-.389 0-.78.019-1.166-.018-1.308-.121-2.372-1.043-2.372-2.336 0-1.731-.01-3.518.389-5.184 1.453-6.063 6.869-10.218 13.092-10.247 1.362-.008 2.728 0 4.053 0v-12.049h-1.601c-12.595 0-25.185.015-37.78-.007-4.09-.008-7.584-1.571-10.004-4.877-1.315-1.801-2.023-4.053-3.004-6.1C0 65.78 0 38.388 0 10.992c.094-.227.222-.447.28-.685.806-3.225 2.397-5.997 5.19-7.802C7.13 1.431 9.086.82 10.91 0h-.004ZM5.187 83.14h122.578V14.124c0-5.692-3.189-8.892-8.856-8.892H14.029c-5.656 0-8.842 3.21-8.842 8.91V83.145v-.004Zm122.528 5.393H5.071c.153 1.596.124 3.137.476 4.587.872 3.614 4 5.807 8.086 5.81 11.552.011 23.1.004 34.651.004h70.731c2.03 0 3.952-.355 5.615-1.633 2.885-2.219 3.332-5.312 3.088-8.772l-.003.004ZM92.827 128.72c-.123-.568-.181-1.084-.345-1.564-1.22-3.609-4.29-5.715-8.398-5.718a8588.389 8588.389 0 0 0-35.168.018c-1.107 0-2.248.187-3.309.509-3.037.915-5.481 4.111-5.289 6.755h52.513-.004ZM57.7 116.116h17.505v-11.888H57.7v11.888Z"/><path d="M40.503 40.118c2.797 2.321 5.57 4.616 8.33 6.908 8.769-6.586 17.27-6.3 25.62.897 2.623-1.881 5.293-3.796 7.858-5.638l-2.445-7.743h-4.145c-4.733 0-6.084-.59-6.048-2.643.036-2.04 1.319-2.581 6.114-2.581h4.279c1.391-8.132 5.594-14.063 13.092-17.193 7.508-3.134 14.632-1.922 21.439 2.988 1.061-1.117 2.078-2.365 3.284-3.39.669-.568 1.689-1.125 2.47-1.026.77.1 1.671.89 2.093 1.626.516.897.192 1.984-.585 2.75-1.232 1.215-2.514 2.379-3.782 3.569 4.774 6.846 5.936 13.989 2.834 21.494-3.106 7.505-8.944 11.734-17.048 13.162v2.91c0 2.007.022 4.013-.007 6.02-.022 1.654-1.148 2.848-2.605 2.83-1.464-.015-2.55-1.198-2.565-2.871-.025-2.53-.003-5.06-.01-7.59 0-.424-.037-.852-.051-1.248-4.497-1.267-8.882-3.546-13.154-6.839-2.648 1.9-5.318 3.815-8.075 5.788 2.354 4.987 2.695 10.068.68 15.194-1.392 3.537-3.706 6.374-6.87 8.472-6.593 4.371-15.017 4.038-21.196-.857-3.607-2.86-5.867-6.572-6.68-11.144-.803-4.504.01-8.736 2.273-12.77a21610.9 21610.9 0 0 1-8.173-6.78 8359.551 8359.551 0 0 0-8.351 4.008v5.287c0 2.834.018 5.67-.007 8.505-.015 1.662-1.13 2.848-2.59 2.844-1.46 0-2.569-1.19-2.58-2.859-.021-4.229-.007-8.46-.007-12.69v-1.043c-2.463-1.245-4.846-2.17-6.93-3.555-5.054-3.36-7.604-10.394-6.23-16.482 1.427-6.33 6.69-11.44 12.75-12.459 4.14-.692 7.999-.007 11.544 2.266.632.407 1.013.356 1.537-.186 2.02-2.098 4.083-4.148 6.142-6.206.821-.82 1.795-1.219 2.943-.82.98.34 1.74 1.084 1.634 2.102-.094.911-.486 1.947-1.09 2.614-1.888 2.094-3.93 4.052-5.935 6.04-.454.45-.643.791-.254 1.432 3.276 5.382 3.45 10.899.592 16.515-.036.073-.044.165-.098.392h.003Zm75.17-1.172c3.363-6.432 1.514-14.853-4.236-19.55-6.037-4.928-14.447-4.895-20.43.088-5.678 4.726-7.487 13.165-4.333 19.063 1.601-.94 3.156-2.01 4.845-2.771.825-.374.952-.718.923-1.512-.065-1.911-.127-3.833.015-5.737.312-4.196 3.669-7.634 7.723-8.066 4.311-.457 8.522 2.058 9.51 6.177.574 2.398.316 4.997.476 7.505.032.487.167 1.322.417 1.388 2.085.563 3.753 1.713 5.093 3.415h-.003ZM73.171 65.453c2.452-5.7.127-12.346-4.853-15.644-5.216-3.456-12.02-2.706-16.3 1.677-4.013 4.111-4.74 10.489-2.691 13.875 1.293-.758 2.583-1.516 3.941-2.314 0-1.354-.036-2.833.008-4.312.138-4.632 3.621-8.183 7.951-8.135 4.45.047 7.818 3.624 7.843 8.336.007 1.435 0 2.87 0 4.067 1.439.857 2.725 1.626 4.105 2.45h-.004Zm28.095-17.295c3.788-.114 7.221-1.23 10.131-3.746.272-.234.512-.724.476-1.065-.218-2.2-3.662-3.723-5.438-2.446-3.03 2.186-7.2 2.219-10.215.088-1.802-1.274-5.006-.088-5.485 2.09-.087.4.109 1.051.41 1.315 2.895 2.53 6.328 3.647 10.121 3.76v.004ZM36.58 35.435c1.697-3.02.574-8.603-2.731-11.525-4.094-3.613-9.965-3.895-13.906-.692-3.887 3.16-5.47 8.615-3.57 12.217.936-.516 2.258-.812 2.702-1.607.483-.868.156-2.197.181-3.324 0-.132 0-.26.008-.392.265-4.14 3.15-7.102 7.076-7.267 3.643-.15 6.786 2.713 7.283 6.729.142 1.16 0 2.354.117 3.518.04.407.374.886.715 1.135.654.476 1.41.813 2.125 1.208Zm68.358-3.965h.004c0-.74.029-1.482-.004-2.222-.091-2.028-1.758-3.628-3.716-3.595a3.697 3.697 0 0 0-3.61 3.562 64.068 64.068 0 0 0 0 4.576c.076 2.018 1.638 3.475 3.639 3.486 2.002.01 3.571-1.443 3.68-3.449.044-.783.007-1.57.007-2.354v-.004Zm-52.19 39.057c5.057 3.998 11.167 4.247 15.977.7 1.079-.799 1.104-1.49.076-2.333-.897-.732-2.35-.794-3.338-.19-2.794 1.71-5.634 1.732-8.442.07-1.835-1.084-3.71-.378-4.269 1.75l-.003.003Zm11.218-10.189c-.102-.838-.112-1.717-.323-2.544-.316-1.241-1.34-1.89-2.626-1.823-1.232.062-2.245.875-2.35 2.152a26.61 26.61 0 0 0 .003 4.405c.109 1.27 1.144 2.086 2.372 2.145 1.257.062 2.288-.619 2.608-1.864.2-.787.215-1.621.316-2.47ZM26.53 42.915c2.132-.146 4.22-.608 6.023-1.951.312-.235.81-.75.74-.883-.217-.42-.62-.93-1.031-1.018-.607-.128-1.388-.117-1.907.176-2.612 1.465-5.187 1.538-7.72-.051-.893-.56-1.66-.348-2.4.077-.709.406-.949.944-.066 1.574 1.9 1.358 4.025 1.937 6.36 2.072v.004ZM24.505 31.61c.037.607.03 1.222.117 1.823.152 1.069.864 1.629 1.874 1.618 1.01-.011 1.762-.582 1.835-1.655a24 24 0 0 0-.019-3.65c-.087-1.007-.795-1.516-1.787-1.53-1.05-.015-1.736.498-1.9 1.567-.09.6-.083 1.215-.12 1.826ZM29.072 73.12c.025 1.38-1.137 2.617-2.507 2.672-1.402.055-2.674-1.208-2.663-2.643a2.6 2.6 0 0 1 2.572-2.574c1.406-.01 2.576 1.135 2.601 2.545h-.003ZM69.088 93.45c-.054 1.72-1.191 2.914-2.717 2.848-1.551-.066-2.583-1.384-2.503-3.196.066-1.52 1.217-2.592 2.721-2.533 1.537.058 2.554 1.23 2.503 2.881h-.004Z"/></g><defs><clipPath id="clip0_459_127"><path fill="#fff" d="M0 0h133v134H0z"/></clipPath></defs></svg>