<svg width="78" height="78" fill="none" xmlns="http://www.w3.org/2000/svg"><g clip-path="url('#clip0_323_4130')" fill="#000"><path d="M57.29 77.566H48.81c-.666-.347-.95-.878-.95-1.65.019-6.29.013-12.572.013-18.861 0-1.32.312-2.547 1.031-3.655.065-.094.089-.218.136-.33h-8.883v21.926h5.175v2.57H32.305v-2.6h5.164V53.083h-8.977c.902 1.297 1.273 2.652 1.273 4.132-.018 6.206-.018 12.419 0 18.625 0 .79-.236 1.368-.949 1.727h-8.482c-.713-.407-.925-1.025-.919-1.827.024-4.715.012-9.43.012-14.146v-.784H9.095v1.18c.011 5.192.017 10.385.029 15.577H6.548c-.012-.3-.035-.601-.035-.902V60.803C2.233 60.456-.1 57.343 0 53.2c.147-5.776.035-11.558.035-17.34v-.908h2.582v10.102c.153-.218.224-.453.271-.695.513-2.623 1.031-5.246 1.532-7.869.425-2.204 1.615-3.82 3.631-4.821.106-.053.195-.13.3-.206-4.13-3.826-3.854-9.284-1.084-12.643 2.818-3.419 7.78-4.315 11.564-2.034 2.511 1.51 3.997 3.737 4.374 6.643.377 2.888-.572 5.381-2.593 7.615 1.066 0 1.95.041 2.829-.018.36-.023.784-.188 1.037-.436a513.618 513.618 0 0 0 7.385-7.39c.26-.266.442-.732.448-1.109.042-2.476.012-4.945.024-7.42 0-1.268.471-1.728 1.739-1.745.748-.006 1.503 0 2.263 0-.654-3.985 2.246-6.401 4.916-6.43 1.497-.018 2.782.483 3.813 1.544 1.309 1.338 1.686 2.982 1.38 4.786.082.035.123.076.17.076.731.012 1.462.006 2.193.024 1.137.03 1.627.5 1.633 1.62.017 1.869 0 3.738 0 5.606 0 .595-.171 1.102-.731 1.39-.566.296-1.061.095-1.545-.247-1.226-.866-2.652-.748-3.548.277-.866.997-.872 2.393-.012 3.395.89 1.032 2.323 1.167 3.537.313.483-.336.96-.566 1.538-.277.601.3.76.83.755 1.45 0 1.845.005 3.684 0 5.528-.006 1.167-.495 1.633-1.68 1.645-.778.006-1.55 0-2.34 0 .377 2.363-.26 4.273-2.204 5.57-1.769 1.173-3.678 1.22-5.494.106-2.075-1.273-2.758-3.23-2.399-5.6-.548-.182-.943-.035-1.35.378-2.157 2.192-4.355 4.35-6.518 6.548-.513.525-1.067.766-1.81.754-2.04-.035-4.084-.011-6.2-.011-.666 3.011-1.332 6-1.993 8.97.148.053.195.083.242.083 3.66.006 7.32.018 10.98-.012.213 0 .531-.324.614-.56.849-2.452 1.65-4.921 2.475-7.38.307-.925.625-1.838.95-2.793.848.289 1.626.554 2.428.831-1.108 3.342-2.187 6.584-3.278 9.873h12.413c0-1.397.006-2.73 0-4.061-.023-3.808-.23-3.666 3.596-3.637 2.375.018 4.744 0 7.12 0h.902V37.84c.005-2.611 1.078-4.62 3.353-5.947.313-.183.649-.33.996-.501-4.226-4.037-3.69-9.743-.571-13.026a9.045 9.045 0 0 1 12.165-.872c1.84 1.45 2.983 3.353 3.324 5.676.472 3.218-.565 5.953-2.776 8.057.967.802 2.028 1.444 2.759 2.357.666.832.972 1.951 1.432 2.948v18.483c-.041.142-.094.283-.124.425-.424 2.21-1.668 3.82-3.707 4.739-.808.365-1.721.489-2.647.736V72.67c0 1.638-.023 3.276-.035 4.915h-2.576c.012-.1.03-.2.03-.3V61.321c0-.165-.036-.336-.053-.5H58.186v.865c0 4.692-.011 9.378.012 14.07 0 .807-.206 1.426-.92 1.827l.013-.018ZM33.585 25.15c-2.558 2.564-5.122 5.104-7.65 7.674-.554.566-1.15.814-1.945.808-4.214-.024-8.429-.012-12.649-.012-2.57 0-3.937 1.096-4.432 3.613a2802.295 2802.295 0 0 0-3.089 15.89c-.577 3.03 1.102 5.052 4.167 5.052h12.042c1.639 0 1.975.347 1.975 2.01v14.741h5.116c.017-.13.04-.2.04-.277 0-5.936.019-11.865-.005-17.8-.012-2.193-1.656-3.796-3.86-3.832-1.97-.03-3.938-.006-5.907-.012-1.514 0-2.027-.63-1.703-2.092.796-3.595 1.597-7.185 2.399-10.774.23-1.026.637-1.356 1.686-1.356 2.069-.006 4.137.018 6.206-.023.377-.006.837-.183 1.102-.448 3.165-3.118 6.301-6.266 9.437-9.413.153-.154.283-.325.383-.436-1.114-1.114-2.18-2.187-3.313-3.325v.012Zm22.038 49.805V59.967c0-1.386.413-1.792 1.816-1.792 4.468 0 8.935.006 13.403 0 2.54 0 4.161-1.627 4.161-4.18.012-5.404.012-10.803 0-16.208 0-2.552-1.615-4.15-4.167-4.161-2.346-.012-4.692 0-7.043 0-2.718 0-4.274 1.544-4.297 4.255-.012 1.845 0 3.684 0 5.529 0 1.426-.43 1.845-1.857 1.845h-8.935c-.266 0-.53.023-.79.035v5.099h16.78V40.145h2.564V51.172c0 1.41-.436 1.84-1.868 1.84-3.507 0-7.02.082-10.521-.024-2.623-.083-4.474 1.786-4.432 4.397.094 5.576.03 11.157.03 16.733v.831h5.162l-.006.006Zm-7.78-59.342c-.135-.053-.182-.082-.224-.088-.96-.012-1.915-.024-2.876-.018-.625 0-1.238-.017-1.58-.654-.347-.654-.076-1.19.319-1.739.778-1.09.618-2.487-.33-3.365a2.58 2.58 0 0 0-3.449-.047c-1.007.878-1.178 2.287-.383 3.412.372.519.672 1.026.354 1.668-.336.678-.955.737-1.615.725-.831-.011-1.668.024-2.499-.011-.507-.024-.648.17-.642.654.023 2.022-.006 4.037.029 6.059 0 .306.183.678.4.908 1.333 1.379 2.7 2.723 4.056 4.084.931.937.925 1.544-.018 2.505-.395.401-.79.814-1.232 1.262 1.663.27 2.075 1.137 1.226 2.363-.837 1.208-.719 2.576.29 3.49.966.872 2.486.878 3.453 0 1.008-.914 1.138-2.293.289-3.484-.366-.513-.566-1.026-.265-1.615.306-.601.866-.696 1.48-.684 1.054.018 2.103 0 3.188 0v-2.676c-3.908.077-6.142-1.597-6.39-4.791-.1-1.25.272-2.4 1.032-3.396 1.362-1.78 3.23-2.263 5.381-1.974v-2.588h.006Zm25.846 8.965c.012-3.542-2.877-6.442-6.43-6.46-3.52-.017-6.46 2.906-6.472 6.437-.012 3.5 2.929 6.46 6.448 6.483 3.507.018 6.442-2.917 6.454-6.454v-.006Zm-53.006-.265c-.247-3.666-3.218-6.365-6.678-6.189-3.666.189-6.324 3.207-6.189 6.614.16 3.948 3.325 6.395 6.614 6.259 3.713-.153 6.489-3.212 6.253-6.684Z"/><path d="M20.73 12.92H2.157c-1.833 0-2.122-.289-2.122-2.087V1.745C.041.448.477 0 1.756 0h27.555c1.285 0 1.75.454 1.757 1.715.006 3.154 0 6.313 0 9.466 0 1.285-.466 1.869-1.721 1.704-2.175-.295-3.784.441-5.057 2.157-.372.5-.873.913-1.332 1.338-.419.383-.967.624-1.444.265-.354-.265-.684-.755-.75-1.185-.117-.807-.034-1.644-.034-2.546v.006Zm7.715-10.28H2.675v7.692h18.591c.277 0 .56-.012.831.03.672.1 1.09.483 1.179 1.179.03.218.059.43.135.96 1.191-2.21 3.048-2.404 5.034-2.14V2.636v.006ZM62.088 10.332v2.281c0 .643-.147 1.209-.813 1.486-.666.277-1.167-.024-1.621-.478-.967-.96-1.91-1.945-2.906-2.87a1.579 1.579 0 0 0-.978-.401c-1.662-.041-3.33-.012-4.992-.024-1.144-.006-1.621-.46-1.633-1.597-.018-2.37-.018-4.739 0-7.114C49.15.477 49.64 0 50.765 0h17.477c1.084 0 1.591.483 1.597 1.562.018 2.399.018 4.792 0 7.19-.006 1.091-.495 1.568-1.58 1.574-2.015.012-4.025 0-6.177 0l.006.006Zm5.11-2.587v-5.11h-15.4v5.11c1.349 0 2.64.065 3.919-.018 1.208-.082 2.18.224 2.911 1.214.207.277.413.548.613.825.537-1.915.672-2.015 2.54-2.015h5.417v-.006Z"/><path d="M5.222 7.698v-2.47h5.087v2.47H5.222ZM20.665 7.704h-2.476v-2.5h2.476v2.5ZM13.002 5.199h2.488v2.487h-2.488V5.199ZM23.358 7.686v-2.47h2.5v2.47h-2.5Z"/></g><defs><clipPath id="clip0_323_4130"><path fill="#fff" d="M0 0h77.59v77.566H0z"/></clipPath></defs></svg>