<svg width="133" height="134" fill="none" xmlns="http://www.w3.org/2000/svg"><g clip-path="url('#clip0_459_122')" fill="#3D71BD"><path d="M62.095 134c-1.875-.255-3.754-.479-5.622-.776-15.998-2.538-29.347-9.986-40.032-22.204C7.726 101.052 2.431 89.415.654 76.26c-1.952-14.451.458-28.187 7.392-41.04 1.214-2.251 2.625-4.403 4.008-6.558.4-.624.492-1.07.116-1.758-2.396-4.353-1.66-9.613 1.756-12.98 3.455-3.403 8.496-4.098 12.785-1.68.767.432 1.239.237 1.854-.196C35.507 7.153 43.1 3.686 51.354 1.754c34.008-7.954 68.259 11.78 78.673 45.333 1.446 4.662 2.407 9.433 2.734 14.321.024.383.162.759.246 1.134v8.639c-.084.51-.172 1.017-.25 1.528-.492 3.176-.812 6.39-1.513 9.517-1.861 8.32-5.305 15.965-10.168 22.952-.457.656-.64 1.163-.183 1.978a10.749 10.749 0 0 1-1.745 12.864 10.589 10.589 0 0 1-12.768 1.775c-.717-.407-1.235-.436-1.847.103-.387.341-.862.578-1.291.869-6.995 4.728-14.598 8.039-22.862 9.705-3.209.649-6.47 1.021-9.707 1.517h-8.57l-.008.011Zm55.083-30.878c17.824-24.933 15.245-61.486-10.122-83.552C82.603-1.698 49.64 1.46 30.698 16.043c2.885 5.342 1.262 10.273-1.527 13.023-3.93 3.882-8.451 4.342-13.29 1.822C-.425 53.202-.594 88.131 22.779 111.452c23.689 23.64 58.288 22.498 79.532 6.565-2.294-5.626-1.735-9.961 1.745-13.342 2.677-2.602 7.437-4.605 13.123-1.553Zm-89.337-81.5c.003-3.537-2.812-6.422-6.295-6.458-3.546-.032-6.463 2.864-6.473 6.43-.011 3.516 2.832 6.409 6.319 6.434 3.595.024 6.445-2.808 6.452-6.41l-.003.004Zm77.34 90.72c-.015 3.544 2.783 6.44 6.262 6.487 3.55.046 6.481-2.836 6.506-6.402.024-3.52-2.808-6.43-6.288-6.462-3.602-.036-6.466 2.782-6.48 6.377Z"/><path d="M17.17 66.998V41.877c0-2.02.295-2.443 2.216-3.148 15.164-5.569 30.332-11.127 45.492-16.71 1.115-.41 2.15-.41 3.269 0 15.16 5.583 30.328 11.141 45.492 16.71 1.917.705 2.216 1.127 2.216 3.148v50.242c0 2.02-.295 2.442-2.216 3.148-15.164 5.569-30.332 11.127-45.492 16.71-1.116.411-2.15.411-3.269 0-15.16-5.583-30.328-11.141-45.492-16.71-1.918-.706-2.217-1.127-2.217-3.148V66.998Zm4.411 22.718c.328-.089.535-.131.732-.202 13.704-5.02 27.408-10.053 41.119-15.047.77-.28.968-.688.94-1.436-.046-1.283-.015-2.566-.015-3.814h4.296c0 1.226.081 2.36-.02 3.48-.103 1.12.35 1.567 1.368 1.936 10.316 3.73 20.61 7.515 30.908 11.287 3.48 1.272 6.956 2.555 10.499 3.856V44.287c-.296.082-.507.124-.704.195C97 49.502 83.297 54.535 69.586 59.529c-.771.28-.968.688-.94 1.436.046 1.283.014 2.566.014 3.814h-4.296c0-1.226-.08-2.36.021-3.48.102-1.121-.351-1.568-1.368-1.936-10.19-3.69-20.36-7.444-30.536-11.173-3.599-1.319-7.205-2.627-10.9-3.97V89.716Zm4.254-48.704c.486.234.732.38.996.475 12.972 4.757 25.944 9.517 38.93 14.242.503.181 1.193.128 1.707-.06 12.82-4.668 25.63-9.368 38.444-14.069.366-.135.718-.312 1.292-.563-.447-.17-.606-.234-.767-.295-13.057-4.785-26.106-9.58-39.177-14.327-.535-.195-1.277-.11-1.837.092-9.5 3.449-18.985 6.933-28.47 10.414-3.63 1.333-7.255 2.67-11.118 4.094v-.003Zm38.568 62.741h4.282v3.35c12.905-4.729 25.589-9.38 38.276-14.03-.007-.1-.018-.199-.025-.298-12.705-4.654-25.41-9.308-38.307-14.034v3.354h-4.24v-3.35c-12.92 4.736-25.645 9.4-38.72 14.19 13.12 4.806 25.832 9.464 38.738 14.189v-3.371h-.004Z"/><path d="M64.442 90.701V86.48h4.11V90.7h-4.11ZM68.604 95.111v4.243h-4.123v-4.243h4.123Z"/></g><defs><clipPath id="clip0_459_122"><path fill="#fff" d="M0 0h133v134H0z"/></clipPath></defs></svg>